#define smily_width 16
#define smily_height 16
static char smily_bits[] = {
 0x00,0x00,0xe0,0x07,0x10,0x08,0x08,0x10,0x04,0x20,0x62,0x46,0x62,0x46,0x02,
 0x40,0x02,0x40,0x12,0x48,0x22,0x44,0xc4,0x23,0x08,0x10,0x10,0x08,0xe0,0x07,
 0x00,0x00};
